<?xml version="1.0" encoding="UTF-8" standalone="no"?>
<!-- Created with Inkscape (http://www.inkscape.org/) -->

<svg
   width="34.924999mm"
   height="13.758333mm"
   viewBox="0 0 34.924999 13.758333"
   version="1.1"
   id="svg5"
   xml:space="preserve"
   inkscape:version="1.2.2 (b0a8486541, 2022-12-01)"
   sodipodi:docname="logo-white.svg"
   xmlns:inkscape="http://www.inkscape.org/namespaces/inkscape"
   xmlns:sodipodi="http://sodipodi.sourceforge.net/DTD/sodipodi-0.dtd"
   xmlns="http://www.w3.org/2000/svg"
   xmlns:svg="http://www.w3.org/2000/svg"><sodipodi:namedview
     id="namedview7"
     pagecolor="#ffffff"
     bordercolor="#000000"
     borderopacity="0.25"
     inkscape:showpageshadow="2"
     inkscape:pageopacity="0.0"
     inkscape:pagecheckerboard="0"
     inkscape:deskcolor="#d1d1d1"
     inkscape:document-units="mm"
     showgrid="false"
     inkscape:zoom="7.8816611"
     inkscape:cx="80.883965"
     inkscape:cy="28.674159"
     inkscape:window-width="1920"
     inkscape:window-height="1043"
     inkscape:window-x="0"
     inkscape:window-y="0"
     inkscape:window-maximized="1"
     inkscape:current-layer="layer1" /><defs
     id="defs2" /><g
     inkscape:label="Layer 1"
     inkscape:groupmode="layer"
     id="layer1"
     transform="translate(-124.20118,-161.74998)"><g
       id="g1767"
       transform="matrix(1.1215707,0,0,1.1215707,-15.147483,-17.463956)"
       style="fill:#ffffff;fill-opacity:1"><text
         xml:space="preserve"
         style="font-size:3.175px;font-family:'Spicy Chicken';-inkscape-font-specification:'Spicy Chicken';fill:#ffffff;stroke-width:0.264583;fill-opacity:1"
         x="134.29524"
         y="167.14139"
         id="text1628"><tspan
           sodipodi:role="line"
           id="tspan1626"
           style="fill:#ffffff;stroke-width:0.264583;fill-opacity:1"
           x="134.29524"
           y="167.14139" /></text><path
         d="m 126.9924,162.52349 c -1.27505,0 -2.59225,0.66387 -2.59225,1.12752 0,0.0738 0.11591,0.16861 0.52688,0.16861 -0.0527,0.99053 -0.0738,2.08644 -0.0738,3.17181 0,0.79032 0.10538,1.75978 0.20022,2.22344 0.0316,0.14752 0.20021,0.49526 0.46365,0.49526 0.17914,0 0.36882,-0.0843 0.36882,-0.21075 0,-0.0632 -0.0316,-0.18967 -0.0421,-0.23182 -0.11592,-0.46366 -0.13699,-1.40151 -0.13699,-2.13914 0.11591,0.0421 0.36881,0.10538 0.56903,0.10538 0.61118,0.88516 1.69655,1.85462 2.19182,2.27612 0.14753,0.12645 0.41097,0.24236 0.57957,0.24236 0.12645,0 0.4215,-0.22128 0.4215,-0.41096 0,-0.10538 -0.0527,-0.15807 -0.10537,-0.20022 -0.77979,-0.60064 -1.68602,-1.32773 -2.19183,-2.1602 0.8114,-0.37936 1.86516,-1.3172 1.86516,-2.67655 0,-0.91678 -0.87462,-1.78086 -2.04429,-1.78086 z m -0.23183,0.70602 c 0.54795,0 1.44365,0.47419 1.44365,1.3172 0,0.84301 -1.08537,2.01268 -2.51849,2.01268 0,-0.60064 0.0316,-1.55956 0.0632,-2.02322 0.0211,-0.29505 0.0316,-0.53741 0.0316,-0.72709 0,-0.10538 -0.0527,-0.27398 -0.18968,-0.32667 0.33721,-0.20021 0.8114,-0.2529 1.16968,-0.2529 z"
         style="font-size:10.5376px;font-family:'Notes Sans';-inkscape-font-specification:'Notes Sans';stroke-width:0.878136;fill:#ffffff;fill-opacity:1"
         id="path1736" /><path
         d="m 131.67704,165.33703 c 0.0211,0 0.0316,0 0.0422,0.0105 0.0105,0.0105 0.0211,0.0211 0.0421,0.0211 0.46366,0 1.07484,0.54796 1.07484,1.60172 0,1.16967 -0.59011,2.16021 -1.53849,2.16021 -0.66387,0 -1.1486,-0.51635 -1.1486,-1.34882 0,-1.53849 0.77978,-2.44472 1.52795,-2.44472 z m -2.37096,2.30773 c 0,1.29613 0.85355,2.11806 1.82301,2.11806 1.35935,0 2.52902,-1.26451 2.52902,-2.89784 0,-1.11698 -0.88516,-2.04429 -1.67548,-2.04429 -0.0316,0 -0.10537,-0.0422 -0.12645,-0.0948 -0.0211,-0.0527 -0.0632,-0.0738 -0.12645,-0.0738 -1.28559,0 -2.42365,1.4015 -2.42365,2.99267 z"
         style="font-size:10.5376px;font-family:'Notes Sans';-inkscape-font-specification:'Notes Sans';stroke-width:0.878136;fill:#ffffff;fill-opacity:1"
         id="path1738" /><path
         d="m 137.90248,164.49402 c -0.0948,0 -0.26344,0.0948 -0.41097,0.30559 -0.35828,0.49527 -1.05376,1.44365 -1.43311,1.94946 -0.43204,-0.45312 -1.00107,-1.28559 -1.42258,-1.95999 -0.0421,-0.0738 -0.14752,-0.14753 -0.26344,-0.14753 -0.18967,0 -0.40043,0.13699 -0.40043,0.29505 0,0.26344 1.25398,2.09698 1.50688,2.37096 -0.46365,0.68495 -0.96946,1.36989 -1.44365,1.93892 -0.0316,0.0422 -0.11591,0.15806 -0.11591,0.27398 0,0.22129 0.12645,0.37935 0.31612,0.37935 0.0738,0 0.23183,-0.0421 0.29506,-0.10537 0.4215,-0.45312 1.06429,-1.15914 1.52795,-1.82301 0.45311,0.54796 1.30666,1.39096 1.71763,1.69655 0.0632,0.0421 0.18967,0.10538 0.27397,0.10538 0.13699,0 0.36882,-0.11591 0.36882,-0.30559 0,-0.0843 -0.0316,-0.13699 -0.0527,-0.15806 -0.45311,-0.42151 -1.33827,-1.34882 -1.86515,-2.01269 0.34774,-0.38989 1.68601,-2.20235 1.68601,-2.52902 0,-0.12645 -0.10537,-0.27398 -0.28451,-0.27398 z"
         style="font-size:10.5376px;font-family:'Notes Sans';-inkscape-font-specification:'Notes Sans';stroke-width:0.878136;fill:#ffffff;fill-opacity:1"
         id="path1740" /><path
         d="m 142.88448,164.77854 c -0.2529,0 -0.53742,0.11591 -0.60064,0.35828 -0.26344,-0.26344 -0.7271,-0.4742 -1.28559,-0.4742 -1.12752,0 -2.26559,1.34882 -2.26559,3.30881 0,1.07484 0.73764,1.77032 1.72817,1.77032 0.68494,0 1.42258,-0.47419 1.82301,-1.13806 0,0.36881 0.40042,1.07483 0.73763,1.07483 0.23182,0 0.38989,-0.11591 0.38989,-0.21075 0,-0.10538 -0.0316,-0.14753 -0.0948,-0.22129 -0.2529,-0.32667 -0.31613,-0.76924 -0.31613,-2.19182 0,-0.46366 0.0316,-0.8114 0.0948,-1.50688 0.0316,-0.35828 0.0422,-0.48473 0.0422,-0.54795 0,-0.12645 -0.14753,-0.22129 -0.2529,-0.22129 z m -0.66387,1.86515 c 0,1.42258 -0.75871,2.4658 -1.78085,2.4658 -0.42151,0 -0.85355,-0.41097 -0.85355,-1.39096 0,-1.42258 0.83247,-2.43419 1.71763,-2.43419 0.62172,0 0.91677,0.38989 0.91677,1.35935 z"
         style="font-size:10.5376px;font-family:'Notes Sans';-inkscape-font-specification:'Notes Sans';stroke-width:0.878136;fill:#ffffff;fill-opacity:1"
         id="path1742" /><path
         d="m 144.41014,162.51295 c -0.0843,0.71656 -0.15807,2.17075 -0.15807,3.46687 0,2.56064 0.33721,3.783 1.09591,3.783 0.32667,0 0.82194,-0.21075 0.82194,-0.46365 0,-0.11592 -0.15807,-0.11592 -0.35828,-0.11592 -0.69548,0 -0.7271,-1.05376 -0.7271,-3.21396 0,-0.41097 0.0527,-1.81247 0.0843,-2.62387 0.0211,-0.48473 0.0316,-0.80085 0.0316,-0.9273 0,-0.29506 -0.0948,-0.46366 -0.28452,-0.46366 -0.28451,0 -0.48473,0.37935 -0.5058,0.55849 z"
         style="font-size:10.5376px;font-family:'Notes Sans';-inkscape-font-specification:'Notes Sans';stroke-width:0.878136;fill:#ffffff;fill-opacity:1"
         id="path1744" /><path
         d="m 148.4859,165.24219 c 0.53742,0 0.99054,0.49527 0.99054,1.09591 0,0.69548 -0.51634,1.0643 -1.24344,1.0643 -0.52688,0 -1.04322,-0.22129 -1.04322,-0.60064 0,-1.03269 0.55849,-1.55957 1.29612,-1.55957 z m -0.10537,-0.64279 c -1.00107,0 -2.00215,0.96946 -2.00215,2.7187 0,1.28559 0.87462,2.39203 2.05484,2.39203 0.6744,0 1.60171,-0.44257 1.60171,-0.6744 0,-0.0843 -0.11591,-0.27398 -0.22129,-0.27398 -0.0843,0 -0.17914,0.0316 -0.35828,0.11591 -0.23182,0.10538 -0.61118,0.22129 -0.96946,0.22129 -0.54795,0 -1.2329,-0.56903 -1.2329,-1.44365 0.3899,0.21075 0.77979,0.27398 1.22237,0.27398 0.88515,0 1.78085,-0.77978 1.78085,-1.77032 0,-0.7587 -0.83247,-1.55956 -1.87569,-1.55956 z"
         style="font-size:10.5376px;font-family:'Notes Sans';-inkscape-font-specification:'Notes Sans';stroke-width:0.878136;fill:#ffffff;fill-opacity:1"
         id="path1746" /><path
         d="m 151.59221,161.94392 c -0.1686,0 -0.46366,0.14753 -0.48473,0.33721 -0.0738,0.61118 -0.1686,2.98214 -0.1686,4.3731 0,1.09591 0.0527,1.97053 0.12645,2.62386 0.0316,0.23183 0.20021,0.43204 0.52688,0.43204 0.1686,0 0.2529,-0.1686 0.2529,-0.29505 0,-0.0421 -0.0105,-0.21075 -0.0211,-0.37935 -0.0211,-0.33721 -0.0316,-0.57957 -0.0316,-1.03269 0,-1.34881 0.99054,-2.64493 1.81247,-2.64493 0.61118,0 0.73763,0.68494 0.73763,2.00214 0,0.88516 0.0105,1.27505 0.0632,2.06537 0.0211,0.27398 0.12645,0.45312 0.27397,0.45312 0.20022,0 0.49527,-0.10538 0.51635,-0.41097 0.0211,-0.32667 0.0316,-1.35935 0.0316,-2.41311 0,-1.41204 -0.74817,-2.39204 -1.61225,-2.39204 -0.71656,0 -1.39097,0.6428 -1.8757,1.55957 0.0105,-0.55849 0.0527,-2.18128 0.0738,-2.98214 0.0105,-0.43204 0.0211,-0.87462 0.0211,-0.95892 0,-0.14753 -0.0843,-0.33721 -0.24236,-0.33721 z"
         style="font-size:10.5376px;font-family:'Notes Sans';-inkscape-font-specification:'Notes Sans';stroke-width:0.878136;fill:#ffffff;fill-opacity:1"
         id="path1748" /></g></g></svg>
